<svg width="96" height="154" viewBox="0 0 96 154" fill="none" xmlns="http://www.w3.org/2000/svg">
<g clip-path="url(#clip0_10245_3689)">
<path d="M80.4826 38.0631C81.9265 67.3701 49.3789 109.709 15.4714 153.891L0.000976562 123.744C0.000976562 123.744 54.115 60.7205 65.0135 23.2059L66.642 19.0303L77.4767 30.4445L80.4826 38.0631Z" fill="#B82C69"/>
<path d="M15.518 38.0631C14.0741 67.3701 46.6218 109.709 80.5292 153.891L95.9996 123.744C95.9996 123.744 41.8856 60.7205 30.9871 23.2059L29.3586 19.0303L18.5239 30.4445L15.518 38.0631Z" fill="#38285D"/>
<path d="M80.5288 38.0631C72.0132 18.5105 48.0232 20.2692 48.0232 20.2692C48.0232 20.2692 24.0331 18.5051 15.5176 38.0631C18.7148 23.1258 22.6557 12.2273 27.575 6.98637C31.4874 2.41579 40.9814 -0.0228459 48.0232 0.000224115C55.0649 -0.026917 64.5576 2.41171 68.4713 6.98637C73.3906 12.2273 77.3315 23.1258 80.5288 38.0631Z" fill="#732954"/>
</g>
<defs>
<clipPath id="clip0_10245_3689">
<rect width="96" height="153.891" fill="white"/>
</clipPath>
</defs>
</svg>
